<svg xmlns="http://www.w3.org/2000/svg" width="41" height="41" viewBox="0 0 41 41">
  <path id="Path_44668" data-name="Path 44668" d="M81.094,173.842c-.019.018-.045.033-.055.055a1.2,1.2,0,0,1-1.183.889,1.23,1.23,0,0,1-1.154-1.135,19.533,19.533,0,0,0-2.48-6.617,19.831,19.831,0,0,0-6.834-6.834,19.043,19.043,0,0,0-6.539-2.467,1.3,1.3,0,0,1-1.206-.951,1.169,1.169,0,0,1,1.386-1.418,22.263,22.263,0,0,1,17.146,14.657c.356,1.041.561,2.133.837,3.2a2.071,2.071,0,0,0,.083.219ZM62.5,162.79a1.167,1.167,0,0,0-.335,2.3c.141.038.286.064.429.1a10.8,10.8,0,0,1,7.757,6.08,22.272,22.272,0,0,1,.983,2.981,1.178,1.178,0,0,0,2.289-.558c-.055-.3-.121-.6-.2-.9a13.265,13.265,0,0,0-7.79-9.1,30.3,30.3,0,0,0-3.1-1Zm15.177,28.187c-.4.48-.845.926-1.284,1.372-.842.855-1.663,1.735-2.553,2.538a5.713,5.713,0,0,1-3.179,1.379,1.128,1.128,0,0,0-.222.076H68.756c-.706-.124-1.418-.221-2.117-.376a27.271,27.271,0,0,1-7.3-2.983,39.746,39.746,0,0,1-9.942-7.8,38.648,38.648,0,0,1-8.1-12.606,17.094,17.094,0,0,1-1.2-5.274,6.662,6.662,0,0,1,1.848-5.268c1.138-1.145,2.252-2.319,3.458-3.388a3.75,3.75,0,0,1,4.984-.012c.791.673,1.521,1.42,2.254,2.159,1.156,1.165,2.335,2.311,3.424,3.536a3.691,3.691,0,0,1-.039,4.938c-.925,1.032-1.927,2-2.909,2.976a.383.383,0,0,0-.089.537,22.381,22.381,0,0,0,3.884,5.308,27.237,27.237,0,0,0,5.182,4.384,16.468,16.468,0,0,0,1.576.864.445.445,0,0,0,.388-.1c.805-.78,1.594-1.577,2.391-2.365a4.512,4.512,0,0,1,2.65-1.444,3.5,3.5,0,0,1,2.828.834c.852.746,1.644,1.562,2.444,2.366,1.091,1.1,2.2,2.18,3.238,3.327A3.8,3.8,0,0,1,77.676,190.977Zm-1.991-3.7c-.582-.624-1.2-1.218-1.8-1.822-1.066-1.067-2.126-2.14-3.205-3.192a1.511,1.511,0,0,0-2.22-.071c-.133.11-.255.235-.378.358-.926.923-1.847,1.852-2.778,2.771a1.782,1.782,0,0,1-2.228.378c-.546-.277-1.095-.554-1.621-.866a28.715,28.715,0,0,1-6.475-5.373,22.806,22.806,0,0,1-4.277-6.141,1.894,1.894,0,0,1,.487-2.482c.912-.881,1.82-1.766,2.712-2.666,1.015-1.024,1-1.778-.01-2.814l-.057-.057q-2.249-2.252-4.5-4.5a1.728,1.728,0,0,0-2.833,0c-.853.846-1.682,1.716-2.554,2.542a4.3,4.3,0,0,0-1.486,3.4,13.842,13.842,0,0,0,1.07,5.052A34.96,34.96,0,0,0,49.718,182a38.229,38.229,0,0,0,12.444,9.815,19.032,19.032,0,0,0,6.972,2.174,4.125,4.125,0,0,0,3.312-.986c1.131-1.073,2.217-2.2,3.278-3.342A1.57,1.57,0,0,0,75.684,187.28Z" transform="translate(-40.094 -155.343)" fill="#00a8f0"/>
</svg>
